<?xml version="1.0" encoding="utf-8"?>
<!-- Generator: Adobe Illustrator 21.0.0, SVG Export Plug-In . SVG Version: 6.00 Build 0)  -->
<svg version="1.1" id="Layer_1" xmlns="http://www.w3.org/2000/svg" xmlns:xlink="http://www.w3.org/1999/xlink" x="0px" y="0px"
	 viewBox="0 0 400 200" style="enable-background:new 0 0 400 200;" xml:space="preserve">
<style type="text/css">
	.st0{fill:#2E3436;}
</style>
<g id="g22" transform="translate(327.30785,208.71859)">
	<path id="path24" class="st0" d="M-189.5-109.6h67v-41.7h-67v7h41.1v27.7h-41.1V-109.6z M-119.1-106.2v-3.4V-106.2z M-196.3-102.8
		v-20.5h41.1v-14.1h-41.1V-158h80.6v51.8v3.4C-115.7-102.8-196.3-102.8-196.3-102.8z M-75.7-103.8l19.4,0c4.7,0,8.1-1,10.5-2.7
		c2.7-1.9,5-4.3,6.7-7.3l2.9,1.7l-2.9-1.7c1.5-2.4,2.8-8.2,3.4-16.7c-0.1-7.7-1.3-13.2-3-16.2c-1.9-3.4-4.1-6-6.9-7.8
		c-2.5-1.7-6.1-2.7-10.9-2.7l-19.3,0L-75.7-103.8L-75.7-103.8z M-56.3-97h-26.2v-67h26c5.7,0,10.7,1.2,14.7,3.8
		c3.8,2.5,6.8,6,9.1,10.2c2.5,4.7,3.6,11.1,3.8,19.4l0,0.1l0,0.1c-0.6,9.1-1.8,15.5-4.3,19.9v0c-2.2,3.8-5.2,7-8.7,9.4
		C-45.8-98.2-50.7-97-56.3-97C-56.3-97-56.3-97-56.3-97z M17.1-186.9v-3.4V-186.9z M20.5-74h32.2v-113H20.5V-74z M-306.2-31.5
		c7-0.1,12.7-0.3,17-0.8c5-0.5,10.6-1.6,16.9-3.3c6.1-1.6,11-4,14.8-6.9c3.9-3.1,6.5-6.2,7.9-9.3c1.3-2.9,2.4-9.2,2.7-18.1V-158
		h18.5V-74h178.1l0.1,0c0.9,0,1.8,0,2.6,0c9.5,0,17.4-1.1,23.5-3.2c6.9-2.3,12.6-5.5,17.3-9.6c4.6-4,8.3-9.5,11.2-16.8
		c2.9-7.2,4.6-16,5.2-26.6c0-11.4-1.7-20.5-4.7-27.2c-3.2-7-7.1-12.4-11.7-16.3l0,0c-4.7-4-10.4-7.2-17.4-9.7
		c-6.9-2.4-14.9-3.6-24.2-3.6h-230.7v106.3l0,0.2c-0.7,5.2-1.6,8.9-3.5,11.7c-1.6,2.3-3.7,4.1-6.3,5.3c-2.4,1.2-5.3,2-8.4,2.5
		c-2.5,0.4-5.4,0.5-8.8,0.6C-306.2-60.4-306.2-31.5-306.2-31.5z M-312.9-24.7v-42.5l3.5,0.1c1,0,1.9,0,2.7,0c3.5,0,6.3-0.2,8.4-0.5
		c2.7-0.4,4.8-1,6.5-1.9c1.6-0.8,2.7-1.8,3.7-3.1c0.7-0.9,1.7-3.9,2.3-8.5v-112.6h237.5c9.9,0,18.7,1.3,26.4,4
		c7.6,2.7,14.2,6.3,19.6,10.9l-2.2,2.6l2.2-2.6c5.5,4.7,9.9,11,13.4,18.7c1.1,2.3,2,4.9,2.7,7.6v-37.8v-3.4h45.7v126.5H13.7v-43.7
		c-0.8,3.5-1.9,6.8-3.1,9.9c-3.2,8-7.5,14.5-13,19.4c-5.4,4.8-12,8.4-19.6,11c-7.1,2.4-15.7,3.5-25.7,3.5c-0.9,0-1.8,0-2.7,0h-184.8
		v-84.1h-4.9v81.4l0,0.1c-0.4,9.4-1.3,16.1-3.3,20.6c-1.9,4.4-5.3,8.4-9.9,11.9c-4.7,3.7-10.5,6.3-17.2,8.1
		c-6.5,1.7-12.5,2.9-17.9,3.5c-5.4,0.6-12.4,0.8-21.1,0.8L-312.9-24.7L-312.9-24.7z"/>
</g>
</svg>
