<?xml version="1.0" encoding="utf-8"?>
<!-- Generator: Adobe Illustrator 21.0.0, SVG Export Plug-In . SVG Version: 6.00 Build 0)  -->
<svg version="1.1"
	 id="Layer_1" inkscape:version="0.48.4 r9939" sodipodi:docname="Star_Wars_Logo.svg" xmlns:cc="http://creativecommons.org/ns#" xmlns:dc="http://purl.org/dc/elements/1.1/" xmlns:inkscape="http://www.inkscape.org/namespaces/inkscape" xmlns:rdf="http://www.w3.org/1999/02/22-rdf-syntax-ns#" xmlns:sodipodi="http://sodipodi.sourceforge.net/DTD/sodipodi-0.dtd" xmlns:svg="http://www.w3.org/2000/svg"
	 xmlns="http://www.w3.org/2000/svg" xmlns:xlink="http://www.w3.org/1999/xlink" x="0px" y="0px" viewBox="0 0 634.1 271.4"
	 style="enable-background:new 0 0 634.1 271.4;" xml:space="preserve">
<path d="M397,125l32.8,0.2L389.6,8.9h-55.2L294.7,124h33.4l5.2-16.8l58.4,0.3L397,125z M382.6,82.5h-39.8l0,0
	c-0.4,0,20.2-57.3,20.3-57.3C363.3,25.3,382.8,82.5,382.6,82.5L382.6,82.5z"/>
<path d="M283,146.4l-54.6,0.1l-39.8,115.2l32.5,0.3l5.2-17.4L285,245l5.5,17.4l32.8-0.2L283,146.4L283,146.4z M275.6,219.5
	L275.6,219.5c-0.1,0-4.1,0-9.6,0c-11.7,0-29.8,0-30,0.1l0,0l0,0c0.1-0.1,5.2-14.1,10.3-28.1c5.1-13.9,10.1-27.8,10.2-28.1l0,0l0,0
	C256.7,164,275.4,219,275.6,219.5L275.6,219.5L275.6,219.5z"/>
<path d="M79.7,124.1c57.8,0,56.5-0.1,64.3-4.9c10.9-6.8,16.9-23.4,12.3-34.1c-0.8-1.9-7.3-10.8-14.3-19.7
	c-10.8-13.7-12.8-16.7-12.8-19.7c0-2.5,1.1-8.9,9.1-8.9l66.9-0.2v87.5h34.1V36.6h57.3V8L115,8.3c-18.3,0-28.7,17-29.6,28.8
	c-0.7,10.3,0.8,13.2,15.1,29.3c12.1,13.6,12.4,14.1,11.8,17.8c-0.4,2.6-1.6,4.4-3.5,5.8l-2.9,2H8v32.1h62.3
	C73.6,124.1,76.7,124.1,79.7,124.1z"/>
<path d="M136.9,197.5L136.9,197.5c-0.6,0-4.8-11-9.4-24.8l-8.7-25.5l0,0H82.1L64.2,198l0,0C64,198,46,147.2,46,147.2H13.3
	l39.2,115.2h22.6l25.5-69.9c-0.1,0.3,24.3,70.7,24.3,70.7h22.9l39.7-115.6h-32.9C154.5,147.7,137.5,197,136.9,197.5z"/>
<path d="M563.3,91.5l-3.4-2.6c-1.8-1.4-4.7-4.2-6.3-6.1c-2.6-3-2.8-3.6-1.3-4.3c0.9-0.4,4.7-2.5,8.3-4.7
	c12.5-7.4,18.8-18.9,17.7-32.2c-0.7-9.4-2-12.7-7.7-19.5c-5.4-6.6-12.7-10.8-20.7-12.2c-3.5-0.6-21.4-1-47.4-1h-41.8V124h37l-0.2-44
	L512,93.8c20.2,19.2,30.1,27.6,34.3,29c2.8,0.9,12.2,1.2,41.6,1.2H626l-0.6-31.7L563.3,91.5z M539.2,58.6c-2.7,2-3.3,2.1-22.5,2.1
	H497V32.2h17.9c15.3,0,18.5,0.2,21.7,1.7c5.8,2.5,8.1,5.6,8.6,11.6C545.8,51.2,544.1,54.9,539.2,58.6z"/>
<path d="M518.7,174.9c0.1,5.6-1.6,13.3,14.5,29.3c12.7,14.3,14,16.6,12.2,20.4c-2.6,5.5-0.9,5.7-34.2,5.7c-3.2,0-6.7,0-10.6,0
	c-33.1,0-40.6-0.2-43.2-1.3c-3-1.3-11.1-9.2-11.1-10.9c0-0.5,2-1.8,4.4-2.9c6.6-3,14.8-10.1,18-15.6c1.6-2.7,3.4-7.7,4.2-11.2
	c3.2-15.3-13.1-39.4-37.2-40.2H401h-45.3l0.2,115l35.9,0.2l0.3-44.6l0,0c0.4,0,7.7,6.7,15.7,14.3c22.1,21.2,30.5,28.1,35.8,29.3
	c3,0.7,23.3,1,61.8,1c0.9,0,1.9,0,2.8,0c63.2,0,62.9,0,71.4-7c8.5-6.9,13.1-17.4,11.8-27.1c-0.8-6-1.9-8-10.2-18.4
	c-3.2-4-8.6-10.7-11.8-14.7s-6.2-8.5-6.6-9.8c-0.8-2.7,1-8.8,3.9-9.3c0.2,0,3.9,0,9.4,0c16.6,0,49.2,0.1,49.2,0.1l0.1-30.3h-73.8
	C523.8,146.8,518.5,168.1,518.7,174.9z M432,198.3c-3.3,1.4-6.4,1.7-21.8,1.7c-13.7,0-18.5-1.2-18.5-1.2s0.2-27.4,0.1-27.6l19.3,0.1
	c16.7,0.1,19.6,0.3,22,1.7C443.7,179.3,443.1,193.5,432,198.3z"/>
<path d="M198.6,139.7h-11.2h-32.9h-5.7l-1.9,5.4c-3,8.6-6.9,20-10.3,29.7c-0.5-1.5-1-3-1.6-4.6l-8.7-25.5l-1.8-5.4h-5.7H82.1h-5.7
	l-1.9,5.3L64,174.3c-3.5-9.7-7.5-21-10.5-29.7l-1.9-5.3h-5.7H13.2H2l0,0l3.6,10.6L44.9,265l1.8,5.4h5.7H75h5.6l1.9-5.3l17.7-48.5
	c1.5,4.4,3.2,9.2,4.8,14c6.1,17.7,12.2,35.3,12.2,35.3l1.9,5.4h5.7h22.9h5.7l1.9-5.4L195,150.3L198.6,139.7z M147.7,263.3h-22.9
	c0,0-24.4-70.5-24.3-70.7L75,262.5H52.4L13.3,147.3H46c0,0,17.9,50.8,18.2,50.8l0,0l17.9-50.8h36.8l0,0l8.7,25.5
	c4.7,13.8,8.9,24.8,9.4,24.8l0,0c0.6-0.5,17.6-49.8,17.6-49.8h32.9L147.7,263.3z"/>
<path d="M625.3,138.8h-73.8c-16,0-25.5,6.3-30.6,11.6c-8.3,8.6-10.3,19.5-10.2,24.6c0,0.4,0,0.9,0,1.3c-0.1,8.3,1.2,17.8,16.7,33.2
	c3.1,3.5,8.2,9.2,10.1,12.1c-4.2,0.5-15,0.5-26.3,0.5h-4.8h-5.8c-19.9,0-36.7-0.1-40.1-0.7c-0.5-0.3-1.2-0.9-1.9-1.5
	c6.9-4.2,13.8-10.8,17.1-16.4c2-3.4,4.2-9.2,5.1-13.6c2-9.6-1.3-21.2-9-31.1c-9-11.5-22-18.3-35.7-18.8H436h-0.1H401h-45.3h-8v8
	l0.2,115v7.9h7.9l35.9,0.2h8v-8l0.2-26.7c0.7,0.7,1.5,1.4,2.3,2.2c24.2,23.2,32.4,29.7,39.6,31.3c2,0.4,5.3,1.2,63.5,1.2h2.8
	c31.5,0,47.4,0,56.8-0.9c10.8-1,14.3-3.5,19.5-7.7l0.2-0.1c10.7-8.7,16.3-21.8,14.7-34.3c-1-8.1-3.2-11.5-11.9-22.4l-2.6-3.2
	c-3-3.8-6.7-8.4-9.2-11.5c-2-2.5-3.5-4.7-4.5-6.1c1.2,0,2.8,0,4.9,0c16.4,0,48.9,0.1,49.2,0.1h8v-8l0.1-30.3v-8l0,0h-8V138.8z
	 M625.3,177.1c0,0-32.6-0.1-49.2-0.1c-5.5,0-9.3,0-9.4,0c-2.9,0.5-4.7,6.6-3.9,9.3c0.4,1.4,3.4,5.8,6.6,9.8
	c3.2,4.1,8.5,10.7,11.8,14.7c8.3,10.4,9.5,12.4,10.2,18.4c1.2,9.7-3.3,20.2-11.8,27.1s-8.1,7-71.4,7c-0.9,0-1.8,0-2.8,0
	c-38.5,0-58.8-0.3-61.8-1c-5.3-1.2-13.6-8-35.8-29.3c-8-7.6-15.3-14.3-15.7-14.3l0,0l-0.3,44.6l-35.9-0.2l-0.2-115H401h34.8
	c24.1,0.9,40.5,24.9,37.2,40.2c-0.7,3.5-2.6,8.5-4.2,11.2c-3.2,5.5-11.4,12.6-18,15.6c-2.4,1.1-4.4,2.4-4.4,2.9
	c0,1.7,8.1,9.6,11.1,10.9c2.6,1.1,10.1,1.3,43.2,1.3c3.9,0,7.4,0,10.6,0c33.3,0,31.6-0.2,34.2-5.7c1.8-3.8,0.4-6.1-12.2-20.4
	c-16.1-16-14.4-23.6-14.5-29.3c-0.2-6.8,5.1-28.1,32.8-28.1h73.8l0,0l0,0l0,0L625.3,177.1z"/>
<path d="M433.1,173c-2.3-1.4-5.3-1.6-22-1.7l-19.3-0.1c0.2,0.2-0.1,27.6-0.1,27.6s4.8,1.2,18.5,1.2c15.4,0,18.5-0.2,21.8-1.7
	C443.1,193.5,443.7,179.3,433.1,173z M428.9,191c-1.8,0.8-4.5,1-18.6,1c-4.5,0-7.9-0.1-10.4-0.3c0-2,0-4.3,0-6.6c0-2,0-4,0-5.8
	l11.2,0.1c6.4,0,16.1,0.1,18,0.6c2.4,1.5,3.8,3.7,3.6,6.1C432.6,187.3,432,189.6,428.9,191z"/>
<polygon points="625.3,146.8 625.3,146.8 625.4,146.8 "/>
<path d="M246.4,191.5c-5.1,14-10.3,28-10.3,28.1c0.1,0,18.3-0.1,30-0.1c5.5,0,9.5,0,9.5,0c-0.2-0.5-18.9-55.5-19-56.2
	C256.5,163.7,251.5,177.6,246.4,191.5z M264.4,211.5c-7.2,0-12.7,0-16.8,0l0,0c1.5-4.1,3.6-9.7,6.3-17.3c0.9-2.4,1.7-4.6,2.4-6.5
	c0.7,2,1.4,4.1,2.2,6.4C259.1,196,261.9,204.3,264.4,211.5z"/>
<path d="M290.6,143.7l-1.9-5.4l0,0H283l-54.6,0.1h-5.7l-1.9,5.4L181.1,259l-3.6,10.5l11.1,0.1L221,270l6,0.1l1.7-5.8l3.5-11.7
	l46.9,0.4l3.7,11.8l1.8,5.6h5.9l32.8-0.2l11.2-0.1l-3.7-10.6L290.6,143.7z M290.5,262.4L285,245l-58.7-0.5l-5.2,17.4l-32.5-0.3
	l39.8-115.2l54.6-0.1l0,0l40.3,115.9L290.5,262.4z"/>
<path d="M275.6,219.5L275.6,219.5L275.6,219.5L275.6,219.5z"/>
<path d="M70.3,132.1h4.9h4.5c28.5,0,42.6,0,50.9-0.6c9.5-0.7,12.5-2.3,17.1-5.1l0.6-0.4c14.3-8.8,21.6-29.8,15.4-44.1
	c-1.9-4.4-14-19.7-15.4-21.5c-3.8-4.8-10.1-12.7-11.1-15c0-0.2,0.1-0.4,0.1-0.5c0.2,0,0.5-0.1,1-0.1l58.9-0.2v79.5v8h8h34.1h8v-8
	V44.6h49.3h8v-8V8V0h-8L115,0.3c-10.5,0-20.2,4.5-27.3,12.7c-5.8,6.7-9.6,15.4-10.2,23.5c-1,13.5,2.1,18.4,17.1,35.2
	c4.3,4.9,8.4,9.5,9.8,11.5c0,0.1,0,0.1-0.1,0.2c0,0,0,0-0.1,0.1l-0.8,0.6H8H0v8v32.1v8h8L70.3,132.1L70.3,132.1z M8,92h97.9l2.9-2
	c1.9-1.4,3.1-3.2,3.5-5.8c0.6-3.7,0.3-4.2-11.8-17.8c-14.3-16.1-15.8-19-15.1-29.3C86.3,25.3,96.7,8.3,115,8.3L296.6,8v28.6h-57.3
	v87.5h-34.1V36.5l-66.9,0.2c-8.1,0-9.1,6.4-9.1,8.9c0,3,2,6,12.8,19.7c7,8.9,13.5,17.8,14.3,19.7c4.6,10.7-1.4,27.3-12.3,34.1
	c-7.8,4.8-6.5,4.9-64.3,4.9c-3,0-6.1,0-9.4,0H8V92z"/>
<path d="M389.4,127.3l1.7,5.6h5.9l32.8,0.2l11.3,0.1l-3.7-10.7L397.2,6.3l-1.9-5.4h-5.7h-55.2h-5.7l-1.9,5.4l-39.7,115.1l-3.7,10.6
	h11.2H328h5.9l1.8-5.6l3.5-11.1l46.6,0.2L389.4,127.3z M333.3,107.3l-5.2,16.8h-33.4L334.4,8.9h55.2l40.2,116.2L397,125l-5.3-17.4
	L333.3,107.3z"/>
<path d="M342.8,82.6L342.8,82.6l39.8-0.1l0,0c0.1,0-19.3-57.2-19.5-57.2C363,25.3,342.4,82.6,342.8,82.6z M353.9,74.5
	c2.5-7,5.9-16.7,9-25.3c2.9,8.6,6.2,18.2,8.6,25.3H353.9z"/>
<path d="M536.7,33.8c-3.2-1.4-6.4-1.7-21.7-1.7h-18v28.6h19.7c19.1,0,19.7-0.1,22.5-2.1c4.9-3.7,6.6-7.4,6.1-13.2
	C544.7,39.4,542.4,36.3,536.7,33.8z M534.4,52.2c-0.1,0.1-0.2,0.1-0.2,0.2c-1.9,0.3-8.8,0.3-17.4,0.3H505V40.1h9.9
	c14,0,16.8,0.2,18.5,1c3.2,1.4,3.6,2.1,3.8,5C537.5,48.9,537.2,50.1,534.4,52.2z"/>
<path d="M633.3,92.2l-0.1-7.7l-7.7-0.1l-59.4-0.9l-1.2-1c-0.4-0.3-0.9-0.7-1.4-1.2c0.4-0.3,0.9-0.5,1.2-0.7
	c15-9,22.9-23.4,21.6-39.7c-0.9-11-2.8-15.9-9.5-24c-6.6-8-15.6-13.3-25.4-15c-5.5-0.9-32.9-1.1-48.7-1.1h-41.8h-8v8v115.1v8h8h37h8
	v-8l-0.1-25.2l0.8,0.8c25,23.8,32.4,29.2,37.2,30.8c3.7,1.3,10,1.6,44.2,1.6h38h8.2l-0.2-8.2L633.3,92.2z M587.9,124.1
	c-29.4,0-38.9-0.3-41.6-1.2c-4.1-1.4-14.1-9.8-34.3-29l-14.4-13.7l0.2,44h-37V8.9h41.8c25.9,0,43.9,0.4,47.4,1
	c8,1.4,15.2,5.7,20.7,12.2c5.7,6.9,7,10.1,7.7,19.5c1.1,13.3-5.2,24.7-17.7,32.2c-3.6,2.2-7.4,4.3-8.3,4.7c-1.4,0.7-1.2,1.3,1.3,4.3
	c1.6,1.9,4.5,4.7,6.3,6.1l3.4,2.6l62.1,0.9l0.6,31.7C626.1,124.1,587.9,124.1,587.9,124.1z"/>
</svg>
